<?xml version="1.0" encoding="UTF-8" standalone="no"?>
<!DOCTYPE svg PUBLIC "-//W3C//DTD SVG 1.1//EN" "http://www.w3.org/Graphics/SVG/1.1/DTD/svg11.dtd">
<svg version="1.1" xmlns="http://www.w3.org/2000/svg" xmlns:xlink="http://www.w3.org/1999/xlink" preserveAspectRatio="xMidYMid meet" viewBox="0 0 640 640" width="640" height="640"><defs><path d="M45.32 673.77C43.38 675.86 36.72 664.41 137.31 832.05C202.38 940.49 230.38 986.84 231.07 987.24C231.89 987.74 235.35 987.82 263.89 987.82C266.01 987.82 276.63 987.82 295.74 987.82C296.54 987.12 296.98 986.74 297.07 986.66C299.23 984.76 299.88 982.49 298.84 980.47C298.37 979.57 298.3 972.27 298.3 922.1C298.3 918.27 298.3 899.15 298.3 864.73L350.77 864.73L403.21 864.73C425.1 901.25 437.27 921.53 439.7 925.59C459.78 959.06 476.63 986.74 477.09 987.13C477.96 987.78 479 987.82 509.99 987.82C512.13 987.82 522.8 987.82 542.02 987.82C542.75 987.08 543.16 986.67 543.24 986.59C544.18 985.66 544.47 985.08 544.47 984.07C544.47 982.99 529.14 957.26 451.79 828.31C382.05 711.95 358.87 673.59 358 672.98C357.93 672.92 357.54 672.66 356.85 672.19L324.82 672.26L292.83 672.36L291.78 673.55L290.74 674.7L290.74 738.26L290.74 801.82C291.39 802.47 291.75 802.83 291.82 802.9C292.86 803.91 293.01 803.94 294.81 803.73C295.81 803.58 313.34 803.4 333.75 803.33C336.22 803.32 348.57 803.29 370.82 803.22C371.31 802.62 371.59 802.28 371.64 802.22C373.41 800.06 375.06 803.04 336.88 739.41C317.44 707.02 301.54 680.43 301.54 680.32C301.54 680.21 313.34 680.1 327.77 680.1C329.52 680.1 338.25 680.1 353.97 680.1C407.7 769.65 437.55 819.4 443.52 829.35C492.79 911.48 533.31 979 533.6 979.47C533.63 979.52 533.8 979.78 534.1 980.26L507.72 980.19L481.31 980.08C459.15 943.15 446.84 922.64 444.38 918.53C417.24 873.33 407.17 856.81 406.41 856.38C405.08 855.55 404.22 855.55 402.56 856.45C401.26 857.17 400.54 857.17 349.33 857.17C304.99 857.14 297.25 857.06 296.5 856.63C294.63 855.55 291.96 856.27 291.17 858.07C290.85 858.79 290.74 873.15 290.74 918.57C290.74 922.54 290.74 942.4 290.74 978.13L289.95 979.18L289.16 980.26C273.05 980.26 264.1 980.26 262.31 980.26C237.15 980.26 235.39 980.22 234.88 979.61C234.59 979.29 194 911.73 144.69 829.53C138.71 819.57 108.83 769.76 55.04 680.1L81.38 680.1L107.73 680.1C145.52 743.09 166.51 778.09 170.71 785.08C218.43 864.62 233.95 890.21 234.77 890.71C237.04 892.15 240.35 890.32 240.35 887.62C240.35 886.65 227.9 865.63 177.15 781.02C142.39 723.04 113.74 675.14 113.45 674.6C113.16 674.06 112.41 673.26 111.76 672.9C110.64 672.22 109.74 672.19 79.12 672.22C61.81 672.22 47.3 672.36 46.91 672.54C46.51 672.69 45.79 673.23 45.32 673.77ZM361.21 795.13C361.1 795.2 346.95 795.27 329.75 795.27C327.67 795.27 317.24 795.27 298.48 795.27C298.41 763.7 298.38 746.16 298.37 742.65C298.3 698.53 298.37 690.14 298.76 690.72C299.05 691.12 313.23 714.72 330.29 743.19C347.39 771.66 361.28 795.02 361.21 795.13Z" id="cYug5jHMU"></path><path d="M421.52 269.18L321.65 269.18L321.65 110L395.12 110L615.53 489.59L542.06 489.59L456.35 342.65L321.65 342.65L321.65 489.59L248.18 489.59L15.53 110L89 110L248.18 377.22" id="b1U1l8cydL"></path><path d="M321.65 110L419.61 269.18" id="a4m638dU8"></path></defs><g><g><g><use xlink:href="#cYug5jHMU" opacity="1" fill="#000000" fill-opacity="1"></use><g><use xlink:href="#cYug5jHMU" opacity="1" fill-opacity="0" stroke="#000000" stroke-width="40" stroke-opacity="0"></use></g></g><g><g><use xlink:href="#b1U1l8cydL" opacity="1" fill-opacity="0" stroke="#252757" stroke-width="40" stroke-opacity="1"></use></g></g><g><g><use xlink:href="#a4m638dU8" opacity="1" fill-opacity="0" stroke="#252757" stroke-width="40" stroke-opacity="1"></use></g></g></g></g></svg>